<svg xmlns="http://www.w3.org/2000/svg" width="13.363" height="13.472" viewBox="0 0 13.363 13.472">
  <g id="Group_53" data-name="Group 53" transform="translate(0)">
    <path id="Path_37" data-name="Path 37" d="M5228.545,821.538v4.311a1.456,1.456,0,0,0,1.408,1.343h2.426a1.392,1.392,0,0,0,1.3-1.343c.043-1.256,0-4.311,0-4.311h2.04s.655.039.245-.4-4.383-4.4-4.383-4.4a.577.577,0,0,0-.87,0c-.448.461-4.376,4.44-4.376,4.44s-.333.366.224.365S5228.545,821.538,5228.545,821.538Z" transform="translate(-5224.482 -816.528)" fill="#fff"/>
    <path id="Path_38" data-name="Path 38" d="M5218.989,856.248h1.022V858.4a.462.462,0,0,0,.493.447c.491.015,10.436,0,10.436,0s.394.032.394-.529v-2.086h1v2.156a1.234,1.234,0,0,1-1.342,1.441c-1.562.03-10.55.019-10.55.019s-1.448-.015-1.457-1.35S5218.989,856.248,5218.989,856.248Z" transform="translate(-5218.986 -846.381)" fill="#fff"/>
  </g>
</svg>
